# xmcd
#
# Track frame offsets:
# 150
# 20480
# 37852
# 56358
# 71465
# 93613
# 112950
# 135792
# 156359
# 179070
# 199925
# 222324
# 240423
# 260216
#
# Disc length: 3777 seconds
#
# Revision: 0
# Processed by: cddbd v1.5.2PL0 Copyright (c) Steve Scherf et al.
# Submitted via: Audion 3.0.2 (http://www.panic.com/audion/)
#
DISCID=c30ebf0e
DTITLE=meringue salsa - meringue salsa
DYEAR=1900
DGENRE=
TTITLE0=meringue salsa
TTITLE1=meringue salsa
TTITLE2=meringue salsa
TTITLE3=meringue salsa
TTITLE4=meringue salsa
TTITLE5=meringue salsa
TTITLE6=meringue salsa
TTITLE7=meringue salsa
TTITLE8=meringue salsa
TTITLE9=meringue salsa
TTITLE10=meringue salsa
TTITLE11=meringue salsa
TTITLE12=meringue salsa
TTITLE13=meringue salsa
EXTD=
EXTT0=
EXTT1=
EXTT2=
EXTT3=
EXTT4=
EXTT5=
EXTT6=
EXTT7=
EXTT8=
EXTT9=
EXTT10=
EXTT11=
EXTT12=
EXTT13=
PLAYORDER=
